<?xml version="1.0" encoding="UTF-8"?>
<svg width="32" height="32" viewBox="0 0 32 32" fill="none" xmlns="http://www.w3.org/2000/svg">
    <!-- Music Note -->
    <path d="M12 8C12 7.44772 12.4477 7 13 7H19C19.5523 7 20 7.44772 20 8V24C20 24.5523 19.5523 25 19 25H13C12.4477 25 12 24.5523 12 24V8Z" fill="#4F46E5"/>
    
    <!-- Sound Wave -->
    <path d="M22 12C22 11.4477 22.4477 11 23 11H25C25.5523 11 26 11.4477 26 12V20C26 20.5523 25.5523 21 25 21H23C22.4477 21 22 20.5523 22 20V12Z" fill="#4F46E5"/>
</svg> 