<?xml version="1.0" encoding="UTF-8"?>
<svg width="200" height="200" viewBox="0 0 200 200" fill="none" xmlns="http://www.w3.org/2000/svg">
    <!-- Background Circle -->
    <circle cx="100" cy="100" r="90" fill="#4F46E5" fill-opacity="0.1"/>
    
    <!-- Music Note -->
    <path d="M80 60C80 57.2386 82.2386 55 85 55H115C117.761 55 120 57.2386 120 60V140C120 142.761 117.761 145 115 145H85C82.2386 145 80 142.761 80 140V60Z" fill="#4F46E5"/>
    
    <!-- Sound Waves -->
    <path d="M130 80C130 77.2386 132.239 75 135 75H145C147.761 75 150 77.2386 150 80V120C150 122.761 147.761 125 145 125H135C132.239 125 130 122.761 130 120V80Z" fill="#4F46E5"/>
    <path d="M160 70C160 67.2386 162.239 65 165 65H175C177.761 65 180 67.2386 180 70V130C180 132.761 177.761 135 175 135H165C162.239 135 160 132.761 160 130V70Z" fill="#4F46E5"/>
</svg> 